<?xml version="1.0" encoding="UTF-8"?>
<svg version="1.1" xmlns="http://www.w3.org/2000/svg" width="500" height="459">
<path d="M0 0 C11.82376831 10.20086106 20.74786388 22.55868896 27.8359375 36.40625 C28.36832031 37.43363281 28.90070313 38.46101563 29.44921875 39.51953125 C35.99689015 53.37623119 38.80169605 69.02127938 41.39746094 84.04223633 C41.79641864 86.19318704 42.28569376 88.2898622 42.8359375 90.40625 C42.9803125 91.06882812 43.1246875 91.73140625 43.2734375 92.4140625 C46.01674846 102.73958016 54.48186577 109.14542214 62.16601562 116.01245117 C78.86495324 131.19692034 90.12465072 149.15083742 92.05078125 171.94921875 C92.33940796 179.21106678 91.73054888 187.5177495 87.27734375 193.5 C82.5160375 197.69707661 77.84707137 198.11896519 71.65625 197.81640625 C68.06044578 197.29347073 65.13363806 195.89954837 61.8359375 194.40625 C58.81165543 194.15747841 55.86191484 194.25605493 52.8359375 194.40625 C51.26511417 201.58631197 50.27304355 208.7311356 49.4609375 216.03125 C47.79811647 229.96192371 45.32880515 242.80670757 38.8359375 255.40625 C37.18893643 258.70025213 37.17747275 261.86112283 37.8359375 265.40625 C39.26919191 268.08953028 40.85646451 270.53483553 42.62109375 273.01171875 C43.8359375 275.40625 43.8359375 275.40625 43.75390625 277.98828125 C42.66032418 280.86882295 41.48243988 281.99625562 39.0859375 283.90625 C38.36148437 284.50695312 37.63703125 285.10765625 36.890625 285.7265625 C36.21257812 286.28085937 35.53453125 286.83515625 34.8359375 287.40625 C31.55680144 290.37308739 29.19278313 293.32250815 26.8359375 297.03125 C23.92074783 301.45910736 21.84114274 303.70214419 16.53515625 304.9453125 C12.49606853 305.72857987 8.45460778 306.330224 4.37109375 306.83203125 C2.65212891 307.05439453 2.65212891 307.05439453 0.8984375 307.28125 C-0.16246094 307.40242188 -1.22335937 307.52359375 -2.31640625 307.6484375 C-5.68168886 308.54399968 -6.855615 309.87090382 -9.1640625 312.40625 C-15.69454192 314.87058186 -21.24234655 315.40149931 -27.7265625 312.71875 C-30.83469564 311.26376821 -32.45797067 310.11887312 -34.9765625 307.65625 C-41.49938734 303.05190306 -49.52563801 305.26323387 -57.00361633 306.48210144 C-65.75531735 307.88410192 -74.35301352 308.67507503 -83.21484375 308.85546875 C-84.22150589 308.8785611 -85.22816803 308.90165344 -86.26533508 308.92544556 C-90.38813304 309.01271294 -94.50985498 309.08784405 -98.63354492 309.11303711 C-101.70405926 309.13805876 -104.77036794 309.2118398 -107.83984375 309.29296875 C-108.76074295 309.28601486 -109.68164215 309.27906097 -110.63044739 309.27189636 C-116.07872509 309.45767562 -118.74979941 310.44685873 -122.64355469 314.35644531 C-123.81825564 315.70533754 -124.99192267 317.05513165 -126.1640625 318.40625 C-130.65517061 321.64064155 -135.16341499 323.85077903 -140.7890625 323.53125 C-144.1587806 322.94213844 -146.28600503 321.77329972 -149.0390625 319.78125 C-154.02913553 316.32582244 -158.43552287 317.55935293 -164.1640625 318.40625 C-171.42398587 319.02822276 -175.86620258 318.13831514 -182.1640625 314.40625 C-182.1640625 313.74625 -182.1640625 313.08625 -182.1640625 312.40625 C-182.8240625 312.40625 -183.4840625 312.40625 -184.1640625 312.40625 C-187.1640625 306.65625 -187.1640625 306.65625 -187.1640625 304.40625 C-188.17726562 304.15101563 -188.17726562 304.15101563 -189.2109375 303.890625 C-198.8685529 301.26687977 -198.8685529 301.26687977 -201.1640625 297.40625 C-202.1462288 290.40831511 -199.80947755 284.83082941 -197.1640625 278.40625 C-197.8240625 278.40625 -198.4840625 278.40625 -199.1640625 278.40625 C-199.7003125 277.25125 -200.2365625 276.09625 -200.7890625 274.90625 C-202.29487294 271.85738292 -203.94066193 269.33751581 -206.1015625 266.71875 C-211.23818961 260.02439888 -213.48271067 252.00494989 -215.66796875 243.96875 C-215.92707031 243.02088623 -216.18617188 242.07302246 -216.453125 241.09643555 C-216.96319834 239.19863427 -217.4570904 237.2963996 -217.93359375 235.38989258 C-218.165625 234.51486084 -218.39765625 233.6398291 -218.63671875 232.73828125 C-218.83531494 231.95171143 -219.03391113 231.1651416 -219.23852539 230.35473633 C-220.43655303 227.8325895 -221.57796267 227.33847742 -224.1640625 226.40625 C-226.54553296 226.20182363 -226.54553296 226.20182363 -229.1015625 226.34375 C-233.4638128 226.40246131 -237.80438166 226.40385377 -242.1640625 226.21875 C-243.7728125 226.16654297 -243.7728125 226.16654297 -245.4140625 226.11328125 C-248.1640625 225.40625 -248.1640625 225.40625 -249.97265625 223.3828125 C-251.48228214 219.61122257 -251.90557545 215.97901453 -252.2265625 211.96875 C-252.30181152 211.1432666 -252.37706055 210.3177832 -252.45458984 209.46728516 C-252.61502564 207.69786028 -252.77047384 205.92797735 -252.92138672 204.15771484 C-253.16551571 201.38977344 -253.44355289 198.62709171 -253.73046875 195.86328125 C-256.36948515 169.98732898 -256.42300639 149.7673328 -239.69287109 128.53955078 C-237.39282028 125.72703383 -235.02849342 122.98373358 -232.609375 120.2734375 C-231.80242187 119.32726562 -230.99546875 118.38109375 -230.1640625 117.40625 C-229.08898437 116.17455078 -229.08898437 116.17455078 -227.9921875 114.91796875 C-225.10326368 109.36851894 -224.65068709 103.49145481 -223.7890625 97.34375 C-219.02477593 65.94687909 -208.96903265 35.25427527 -187.1640625 11.40625 C-186.33519531 10.49617188 -185.50632812 9.58609375 -184.65234375 8.6484375 C-177.81587588 1.48262154 -170.38258651 -4.13016784 -162.1640625 -9.59375 C-161.12507813 -10.3053125 -160.08609375 -11.016875 -159.015625 -11.75 C-111.53150239 -42.84791405 -42.62832789 -35.49242598 0 0 Z M-144.1640625 -11.59375 C-145.29585938 -11.10003906 -146.42765625 -10.60632812 -147.59375 -10.09765625 C-156.79960133 -5.82277874 -163.70534585 -0.3744015 -171.1640625 6.40625 C-172.70339649 7.74227573 -174.24468563 9.07605679 -175.7890625 10.40625 C-179.10101396 13.278569 -179.10101396 13.278569 -182.1640625 16.40625 C-182.1640625 17.06625 -182.1640625 17.72625 -182.1640625 18.40625 C-183.0303125 18.75623047 -183.0303125 18.75623047 -183.9140625 19.11328125 C-192.20644047 23.87851928 -197.19054682 35.74830781 -201.4765625 43.84375 C-202.23163086 45.25370239 -202.23163086 45.25370239 -203.00195312 46.69213867 C-208.81810094 57.96432235 -211.67362135 69.88630933 -214.3515625 82.21875 C-214.61130859 83.38083984 -214.87105469 84.54292969 -215.13867188 85.74023438 C-216.43243478 91.62067095 -217.55242456 97.41514588 -218.1640625 103.40625 C-217.5040625 103.40625 -216.8440625 103.40625 -216.1640625 103.40625 C-216.1640625 104.06625 -216.1640625 104.72625 -216.1640625 105.40625 C-216.8240625 105.40625 -217.4840625 105.40625 -218.1640625 105.40625 C-217.885625 107.076875 -217.885625 107.076875 -217.6015625 108.78125 C-217.61307838 115.34529949 -222.86496638 119.01190064 -227.1640625 123.40625 C-238.23551917 135.91749252 -244.72047593 147.40933835 -249.1640625 163.40625 C-249.69193359 165.26636719 -249.69193359 165.26636719 -250.23046875 167.1640625 C-252.80422407 179.42645695 -248.5937469 191.81665944 -242.37890625 202.46484375 C-240.75159751 204.60369828 -239.05014599 206.49507449 -237.1640625 208.40625 C-235.93162665 209.8618216 -234.70242955 211.32014194 -233.4765625 212.78125 C-229.99777105 216.81631597 -227.67021365 219.23889987 -222.2265625 219.84375 C-219.3901743 219.92833414 -218.06242017 219.35090469 -215.53125 217.97265625 C-212.13454397 214.29008882 -211.92498244 210.75357969 -211.2265625 205.90625 C-209.28867523 194.60851982 -205.87295608 183.16432153 -196.25 175.9765625 C-192.6593917 173.5962716 -189.53959653 171.81645632 -185.1640625 171.40625 C-185.4765625 173.34375 -185.4765625 173.34375 -186.1640625 175.40625 C-187.1540625 175.73625 -188.1440625 176.06625 -189.1640625 176.40625 C-189.1640625 177.39625 -189.1640625 178.38625 -189.1640625 179.40625 C-182.24621309 178.92915694 -176.03219277 177.34861826 -169.3984375 175.34375 C-166.64330628 174.54516124 -163.97312517 173.96448189 -161.1640625 173.40625 C-158.70745815 172.84522436 -156.25343838 172.27694886 -153.80078125 171.69921875 C-153.09113724 171.53255203 -152.38149323 171.36588531 -151.65034485 171.19416809 C-150.14659898 170.84072254 -148.6429542 170.48684663 -147.1394043 170.13256836 C-144.89730678 169.60452341 -142.65473492 169.07853162 -140.41210938 168.55273438 C-133.87892229 167.01693508 -127.35283963 165.46426326 -120.84855652 163.80979919 C-113.61782148 161.97082889 -106.37388529 160.39972792 -99.0390625 159.03125 C-89.73727606 157.2520564 -80.65055374 155.06660313 -71.59521484 152.28564453 C-65.94170871 150.6201433 -60.05606264 149.28116226 -54.1640625 150.40625 C-50.38375311 156.07671409 -51.65323706 163.84904736 -52.59375 170.3984375 C-55.53634838 183.51298089 -60.6921762 196.70420571 -70.1640625 206.40625 C-71.21400391 207.49679687 -71.21400391 207.49679687 -72.28515625 208.609375 C-90.4905073 226.13324232 -119.55429857 225.24668626 -143.1640625 226.40625 C-144.36740234 226.47183105 -145.57074219 226.53741211 -146.81054688 226.60498047 C-150.07438746 226.76891555 -153.33492972 226.87940885 -156.6015625 226.96875 C-158.03665161 227.04536865 -158.03665161 227.04536865 -159.50073242 227.12353516 C-164.69892905 227.19347232 -167.60320738 226.55293052 -171.6171875 223.13671875 C-174.12265854 220.6356906 -176.46469644 218.07612641 -178.4765625 215.15625 C-181.01689351 211.51288523 -181.01689351 211.51288523 -184.1640625 208.40625 C-186.81872299 208.63668864 -186.81872299 208.63668864 -189.1640625 209.40625 C-189.3703125 210.355 -189.5765625 211.30375 -189.7890625 212.28125 C-191.1640625 215.40625 -191.1640625 215.40625 -193.76171875 216.50390625 C-197.47477813 217.48865564 -201.20122788 218.27261513 -204.9765625 218.96875 C-209.43235908 219.45005983 -209.43235908 219.45005983 -213.1640625 221.40625 C-213.33146216 241.79552798 -206.04770775 259.72724266 -192.1796875 274.5234375 C-186.25718626 280.24555336 -179.36212861 283.85053075 -172.04663086 287.46850586 C-170.77926616 288.09980502 -169.51963335 288.74684246 -168.26782227 289.40844727 C-148.16693776 299.90868366 -122.71949806 305.04822721 -100.1640625 305.40625 C-99.4510498 305.43058105 -98.73803711 305.45491211 -98.00341797 305.47998047 C-75.73975593 306.236992 -51.22707469 304.40857465 -30.58984375 295.390625 C-27.80399127 294.26013414 -24.99556234 293.46985292 -22.1015625 292.65625 C-16.55939694 290.99557732 -11.3946035 288.85035449 -6.1640625 286.40625 C-5.44597412 286.07399414 -4.72788574 285.74173828 -3.98803711 285.39941406 C0.02643916 283.47700212 3.55595691 281.4812318 6.8359375 278.40625 C6.8359375 277.74625 6.8359375 277.08625 6.8359375 276.40625 C7.94582031 276.24576172 7.94582031 276.24576172 9.078125 276.08203125 C19.51237629 273.5251963 29.70486188 260.2778511 35.2734375 251.53125 C39.5807028 242.86706792 40.55662096 232.88918387 41.8359375 223.40625 C41.95453125 222.54612305 42.073125 221.68599609 42.1953125 220.79980469 C43.98689132 207.00571423 44.01416441 193.167083 44.0234375 179.28125 C44.02452515 178.38464661 44.02561279 177.48804321 44.0267334 176.56427002 C44.02637918 173.98807374 44.01723165 171.41209658 44.00390625 168.8359375 C44.00269272 168.05978088 44.00147919 167.28362427 44.00022888 166.48394775 C43.96719782 162.65933704 43.68924525 159.13234641 42.8359375 155.40625 C42.77146661 152.41238289 42.83663339 149.43504297 42.8984375 146.44140625 C42.83434766 143.32904352 42.37445909 140.46858921 41.8359375 137.40625 C41.68791228 135.51207536 41.56509161 133.61584276 41.4609375 131.71875 C38.91234257 94.99581397 35.00972788 54.53807413 11.8359375 24.40625 C11.0728125 23.375 10.3096875 22.34375 9.5234375 21.28125 C8.688125 20.353125 8.688125 20.353125 7.8359375 19.40625 C7.1759375 19.40625 6.5159375 19.40625 5.8359375 19.40625 C5.60390625 18.85195312 5.371875 18.29765625 5.1328125 17.7265625 C-5.7843324 -1.80591964 -32.82520573 -12.79027551 -53.01269531 -18.99609375 C-59.29698899 -20.74188936 -65.710667 -21.71582614 -72.1640625 -22.59375 C-73.58912109 -22.79097656 -73.58912109 -22.79097656 -75.04296875 -22.9921875 C-77.75364846 -23.29843223 -80.4389194 -23.46758597 -83.1640625 -23.59375 C-85.05898438 -23.70783203 -85.05898438 -23.70783203 -86.9921875 -23.82421875 C-106.55674519 -24.62931689 -126.37611323 -19.47847929 -144.1640625 -11.59375 Z M46.8359375 115.40625 C46.80823275 117.19782359 46.7892335 118.98953184 46.7734375 120.78125 C46.76183594 121.77898437 46.75023437 122.77671875 46.73828125 123.8046875 C46.81378473 126.58925598 47.00717946 129.24224674 47.30859375 132.00390625 C48.0814273 139.27086904 48.21445422 146.56103786 48.44140625 153.86132812 C48.51578995 156.04795246 48.60342308 158.23417421 48.70556641 160.41967773 C48.78562979 162.25378903 48.83209399 164.09019643 48.82177734 165.92602539 C48.99949349 171.78372595 51.13649688 174.63008447 55.26953125 178.68945312 C55.99269531 179.35912109 56.71585937 180.02878906 57.4609375 180.71875 C58.16089844 181.40775391 58.86085938 182.09675781 59.58203125 182.80664062 C64.41202784 187.45293605 69.2294258 191.92075804 76.0859375 192.84375 C78.78360754 192.61057676 78.78360754 192.61057676 80.5234375 191.28125 C84.69526086 185.32150234 85.305563 180.60713462 85.2109375 173.53125 C85.22253906 172.67144531 85.23414063 171.81164062 85.24609375 170.92578125 C85.21980538 165.15110193 84.22648939 160.64701809 81.8359375 155.40625 C81.48273438 154.56578125 81.12953125 153.7253125 80.765625 152.859375 C74.30768497 139.36945583 63.19660791 125.06136611 50.8359375 116.40625 C48.70176201 115.70330285 48.70176201 115.70330285 46.8359375 115.40625 Z M-68.53125 158.18359375 C-69.8313501 158.45272583 -69.8313501 158.45272583 -71.15771484 158.72729492 C-72.10855957 158.9307251 -73.0594043 159.13415527 -74.0390625 159.34375 C-75.5562085 159.66339722 -75.5562085 159.66339722 -77.10400391 159.98950195 C-89.31494395 162.59746467 -101.47386282 165.44206368 -113.63232422 168.28295898 C-114.45124146 168.47384094 -115.27015869 168.6647229 -116.1138916 168.86138916 C-117.64230347 169.21790391 -119.17040971 169.57573302 -120.69812012 169.9352417 C-124.4770046 170.81660629 -128.26019407 171.63460335 -132.06762695 172.38378906 C-137.19625727 173.39611109 -142.28260708 174.55776991 -147.37109375 175.75390625 C-148.29951584 175.97066513 -149.22793793 176.18742401 -150.18449402 176.41075134 C-153.11553475 177.09525882 -156.04608066 177.78185414 -158.9765625 178.46875 C-161.92496181 179.15893417 -164.87346833 179.84865181 -167.82218933 180.53746033 C-169.64767842 180.96397405 -171.47297489 181.39131331 -173.29804993 181.81959534 C-179.57024198 183.28629599 -185.77698264 184.52959198 -192.1640625 185.40625 C-192.21803585 187.8440463 -192.25771866 190.28064685 -192.2890625 192.71875 C-192.30582031 193.40904297 -192.32257813 194.09933594 -192.33984375 194.81054688 C-192.37624044 198.57760396 -192.30785114 200.19056704 -190.1640625 203.40625 C-187.58026073 203.65655977 -187.58026073 203.65655977 -185.1640625 203.40625 C-184.5040625 200.43625 -183.8440625 197.46625 -183.1640625 194.40625 C-183.01710938 195.458125 -183.01710938 195.458125 -182.8671875 196.53125 C-181.3130823 207.07940427 -181.3130823 207.07940427 -174.92578125 215.16015625 C-159.48677617 224.8827467 -141.33337401 221.52356811 -124.11425781 219.43481445 C-121.27292172 219.09180145 -118.42979932 218.76859078 -115.5859375 218.44726562 C-102.31403094 216.90635975 -91.15326626 215.45924215 -80.1640625 207.40625 C-79.1328125 206.82875 -78.1015625 206.25125 -77.0390625 205.65625 C-66.16110664 197.14306716 -60.11823238 181.6879809 -58.1640625 168.40625 C-57.92883808 165.05212407 -57.79217874 161.75320384 -58.1640625 158.40625 C-59.19878071 157.14752878 -59.19878071 157.14752878 -61.45361328 157.29516602 C-63.91908684 157.39621001 -66.12070809 157.68177386 -68.53125 158.18359375 Z M-197.1640625 188.40625 C-199.99709699 194.22970979 -198.7541108 199.3845832 -197.1640625 205.40625 C-196.8340625 205.73625 -196.5040625 206.06625 -196.1640625 206.40625 C-195.79645519 208.73442964 -195.46164669 211.0680885 -195.1640625 213.40625 C-194.1740625 213.73625 -193.1840625 214.06625 -192.1640625 214.40625 C-191.36842058 212.19272557 -191.36842058 212.19272557 -191.1640625 209.40625 C-191.6384375 208.519375 -192.1128125 207.6325 -192.6015625 206.71875 C-194.38387048 202.94025709 -194.71253051 199.63070749 -194.8515625 195.53125 C-194.88572266 194.84289062 -194.91988281 194.15453125 -194.95507812 193.4453125 C-195.03670341 191.76616387 -195.1020782 190.08623832 -195.1640625 188.40625 C-195.8240625 188.40625 -196.4840625 188.40625 -197.1640625 188.40625 Z M-203.1640625 193.40625 C-205.22131467 197.78871576 -205.77101971 201.96719358 -206.2890625 206.71875 C-206.37542969 207.45931641 -206.46179688 208.19988281 -206.55078125 208.96289062 C-206.76140955 210.77663435 -206.96359236 212.59135543 -207.1640625 214.40625 C-204.19340741 214.06397428 -204.19340741 214.06397428 -201.1640625 213.40625 C-200.8340625 212.74625 -200.5040625 212.08625 -200.1640625 211.40625 C-200.4940625 210.41625 -200.8240625 209.42625 -201.1640625 208.40625 C-201.39124746 205.83990139 -201.58014434 203.28946893 -201.7265625 200.71875 C-201.76974609 200.01685547 -201.81292969 199.31496094 -201.85742188 198.59179688 C-201.9632361 196.86349794 -202.06412831 195.1348989 -202.1640625 193.40625 C-202.4940625 193.40625 -202.8240625 193.40625 -203.1640625 193.40625 Z M-245.1640625 209.40625 C-244.8340625 212.70625 -244.5040625 216.00625 -244.1640625 219.40625 C-240.6990625 218.91125 -240.6990625 218.91125 -237.1640625 218.40625 C-237.1640625 217.74625 -237.1640625 217.08625 -237.1640625 216.40625 C-238.0921875 216.3134375 -238.0921875 216.3134375 -239.0390625 216.21875 C-241.1640625 215.40625 -241.1640625 215.40625 -242.2890625 212.90625 C-242.7221875 211.66875 -242.7221875 211.66875 -243.1640625 210.40625 C-243.8240625 210.07625 -244.4840625 209.74625 -245.1640625 209.40625 Z M20.0859375 277.65625 C15.59886471 281.92231771 11.56778791 284.25401823 5.8359375 286.40625 C4.4952644 287.05803052 3.15963812 287.72065618 1.8359375 288.40625 C1.8359375 289.06625 1.8359375 289.72625 1.8359375 290.40625 C1.10310547 290.53531738 0.37027344 290.66438477 -0.38476562 290.79736328 C-2.97754482 291.36538782 -5.19274621 292.12073272 -7.6328125 293.1484375 C-8.45136719 293.49261719 -9.26992188 293.83679688 -10.11328125 294.19140625 C-10.95503906 294.55105469 -11.79679688 294.91070312 -12.6640625 295.28125 C-13.50582031 295.63316406 -14.34757813 295.98507812 -15.21484375 296.34765625 C-19.38979369 298.11625709 -23.3516488 299.92193124 -27.1640625 302.40625 C-26.20034756 304.81553735 -25.51196087 306.16632009 -23.3515625 307.65625 C-20.6163369 308.59404163 -19.0428169 308.8860424 -16.1640625 308.40625 C-12.79894682 305.96489157 -10.47243761 303.86881267 -8.1640625 300.40625 C-6.02856445 300.16088867 -6.02856445 300.16088867 -3.40234375 300.32421875 C-2.44779297 300.36095703 -1.49324219 300.39769531 -0.50976562 300.43554688 C1.49354136 300.54003359 3.49624166 300.65698546 5.49804688 300.78710938 C10.53525264 300.95940816 13.93913359 300.93069876 17.96875 297.6875 C20.42695727 295.18880721 21.69335264 293.2874033 22.0234375 289.71875 C22.69101058 285.56727991 22.69101058 285.56727991 24.5234375 283.53125 C27.59036967 282.03922894 30.67243101 280.68381993 33.8359375 279.40625 C33.55976217 277.46550139 33.55976217 277.46550139 32.8359375 275.40625 C27.25479104 271.68548569 24.55635787 273.12739276 20.0859375 277.65625 Z M-190.7890625 287.90625 C-191.5728125 288.73125 -192.3565625 289.55625 -193.1640625 290.40625 C-192.8340625 291.39625 -192.5040625 292.38625 -192.1640625 293.40625 C-190.15341295 294.1719072 -190.15341295 294.1719072 -187.7890625 294.65625 C-183.9064548 295.83149258 -183.39162846 296.01718562 -181.2265625 299.71875 C-180.56332487 302.02057473 -179.93254955 304.33230179 -179.3515625 306.65625 C-178.35663307 309.63428679 -178.35663307 309.63428679 -175.4140625 311.28125 C-172.0903615 312.43176188 -169.65097954 312.6553155 -166.1640625 312.40625 C-166.1640625 311.74625 -166.1640625 311.08625 -166.1640625 310.40625 C-165.5040625 310.40625 -164.8440625 310.40625 -164.1640625 310.40625 C-163.8340625 311.06625 -163.5040625 311.72625 -163.1640625 312.40625 C-161.9678125 312.07625 -160.7715625 311.74625 -159.5390625 311.40625 C-152.82859241 309.8079594 -152.82859241 309.8079594 -149.1640625 310.40625 C-147.65642734 311.38455002 -146.17951619 312.41094081 -144.7265625 313.46875 C-141.47674092 315.7775458 -140.47320942 316.39104605 -136.3515625 316.59375 C-132.59664411 315.19485884 -131.2331053 313.79948018 -129.1640625 310.40625 C-129.1640625 309.74625 -129.1640625 309.08625 -129.1640625 308.40625 C-130.31519531 308.138125 -131.46632812 307.87 -132.65234375 307.59375 C-144.026388 304.83373863 -154.49180696 301.03384508 -165.17138672 296.27392578 C-167.67730109 295.18276924 -170.2256547 294.22816571 -172.7890625 293.28125 C-177.06234615 291.61691847 -180.64143055 289.25472019 -184.3515625 286.578125 C-187.56037015 284.50346488 -187.97201124 285.22334404 -190.7890625 287.90625 Z " fill="#010101" transform="translate(326.1640625,71.59375)"/>
<path d="M0 0 C1.21236328 -0.01224609 2.42472656 -0.02449219 3.67382812 -0.03710938 C18.71993481 -0.06131223 35.11185401 1.73735962 46.5 12.6875 C51.05408212 17.77474295 52.97281062 22.16826719 52.73046875 29 C52.3014101 32.20363789 51.23573268 34.52345159 49.4375 37.1875 C47.9525 37.6825 47.9525 37.6825 46.4375 38.1875 C46.210625 38.950625 45.98375 39.71375 45.75 40.5 C43.73949782 44.61674257 40.54106072 45.66511903 36.4375 47.1875 C30.83066582 49.0569308 25.16279124 50.72204189 19.4375 52.1875 C18.72827393 52.38093994 18.01904785 52.57437988 17.28833008 52.77368164 C9.67150559 54.60304997 1.99344724 54.4566439 -5.78833008 54.39331055 C-8.15131168 54.37479382 -10.51390578 54.37280314 -12.87695312 54.37304688 C-14.37760758 54.36813993 -15.87825939 54.36231525 -17.37890625 54.35546875 C-18.08608292 54.35435593 -18.79325958 54.3532431 -19.52186584 54.35209656 C-24.44636091 54.30363909 -24.44636091 54.30363909 -25.5625 53.1875 C-27.09779607 52.86397018 -28.64124517 52.57877349 -30.1875 52.3125 C-34.64184934 51.46344906 -38.42141995 50.06270606 -42.5625 48.1875 C-43.7175 47.960625 -44.8725 47.73375 -46.0625 47.5 C-50.42529707 45.8639511 -52.24227415 43.55840366 -55.08203125 39.96484375 C-56.45619425 38.07356249 -56.45619425 38.07356249 -58.5625 37.1875 C-57.18401434 25.80310981 -51.4976247 17.31754901 -42.5625 10.1875 C-35.02720973 5.46993867 -27.2281327 2.93571908 -18.5625 1.1875 C-17.8096875 1.01476562 -17.056875 0.84203125 -16.28125 0.6640625 C-10.91383944 -0.27677671 -5.43463833 0.00282612 0 0 Z M-27.5625 8.1875 C-29.18671875 8.7134375 -29.18671875 8.7134375 -30.84375 9.25 C-38.35612348 11.98177218 -44.33213122 16.1027682 -49.5625 22.1875 C-50.83926871 24.83803838 -50.83926871 24.83803838 -51.5625 27.1875 C-51.2325 27.5175 -50.9025 27.8475 -50.5625 28.1875 C-48.73024569 27.99359913 -46.89879763 27.78741935 -45.07373047 27.53466797 C-19.13924549 23.94932501 7.06641923 22.52550371 33.21069336 21.52880859 C37.0466906 21.37034668 40.69993911 21.09198974 44.4375 20.1875 C44.14031707 17.41379263 43.52080296 16.27357972 41.5625 14.25 C21.73902146 1.16650416 -5.54297221 0.51096738 -27.5625 8.1875 Z M-16.5625 28.1875 C-18.5884311 28.42023534 -20.61447832 28.65196151 -22.640625 28.8828125 C-24.69818855 29.12793682 -26.755489 29.37528124 -28.8125 29.625 C-29.74191406 29.73497314 -30.67132813 29.84494629 -31.62890625 29.95825195 C-37.83689632 30.76401043 -43.62361708 32.2140153 -49.5625 34.1875 C-49.5625 35.5075 -49.5625 36.8275 -49.5625 38.1875 C-36.06549066 51.27550906 -15.44355678 48.61755381 1.94921875 48.3671875 C23.29662693 48.1423843 23.29662693 48.1423843 41.6875 38.19140625 C45.04278438 34.61288723 46.7293237 32.11060514 47.4375 27.1875 C43.7198234 25.94827447 40.25940165 26.02562696 36.38671875 26.01953125 C35.58474564 26.0153418 34.78277252 26.01115234 33.95649719 26.00683594 C31.34594874 25.99702167 28.73556393 25.99705267 26.125 26 C24.79287476 26.00040787 24.79287476 26.00040787 23.43383789 26.00082397 C9.99150334 26.01983352 -3.21603882 26.50274959 -16.5625 28.1875 Z " fill="#010101" transform="translate(253.5625,139.8125)"/>
<path d="M0 0 C3.2764495 3.25071822 5.30264562 6.38512112 5.5625 11.0625 C4.93437268 15.45939121 3.82372293 17.61153248 1 21 C-2.71099202 23.47399468 -5.69671569 23.66141562 -10 23 C-14.28429725 20.77546104 -17.64117762 18.24588028 -20 14 C-20.4775205 10.706969 -20.18854296 8.10931329 -19 5 C-16.06959301 1.35055796 -12.95992931 -1.42983874 -8.421875 -2.75 C-4.76498268 -3.12748566 -3.03445238 -2.02296826 0 0 Z " fill="#010101" transform="translate(321,126)"/>
<path d="M0 0 C3.05348543 1.24632058 4.36625001 2.15500001 6.3125 4.75 C7.66665816 9.18179033 7.40770022 12.84484937 5.875 17.1875 C3.57359317 20.63961024 1.7301296 22.1701251 -2 24 C-6.56134911 24.89223995 -9.33965427 24.36018858 -13.4375 22.125 C-16.21788527 19.81931466 -16.88751567 19.12853131 -17.23828125 15.609375 C-17.40017902 9.3720503 -17.22288753 5.71969783 -13 1 C-9.07713554 -0.96143223 -4.28670656 -0.34690111 0 0 Z " fill="#010101" transform="translate(185,131)"/>
</svg>
