<?xml version="1.0" encoding="UTF-8"?>
<svg version="1.1" xmlns="http://www.w3.org/2000/svg" width="511" height="489">
<path d="M0 0 C3.57558606 0.04230299 7.14929978 0.04100094 10.72509766 0.03417969 C23.32422235 0.06908242 35.25473377 0.75744303 47.54931641 3.54199219 C48.87672852 3.80931152 48.87672852 3.80931152 50.23095703 4.08203125 C67.53819159 7.57516534 84.08304127 14.05600367 98.60400391 24.20996094 C100.39791495 25.43832171 102.20419247 26.50263655 104.11181641 27.54199219 C108.19498008 29.91765105 111.83090696 32.63949272 115.54931641 35.54199219 C116.36916016 36.16332031 117.18900391 36.78464844 118.03369141 37.42480469 C122.78343558 41.09506155 126.95225334 44.80730942 130.77978516 49.43261719 C132.73984956 51.7691178 134.82851088 53.9517366 136.92431641 56.16699219 C142.29608997 62.12344859 146.41371867 68.70264626 150.54931641 75.54199219 C151.51224609 77.11400391 151.51224609 77.11400391 152.49462891 78.71777344 C164.62800819 98.96633498 170.25089262 121.05691935 174.60791016 144.06933594 C174.77790527 144.95830566 174.94790039 145.84727539 175.12304688 146.76318359 C175.43671154 148.426139 175.74004493 150.09109545 176.03027344 151.75830078 C177.59178162 160.13786174 180.0462104 166.95547772 186.73681641 172.54199219 C187.80273334 173.46514485 188.86500472 174.39251747 189.92431641 175.32324219 C190.50052734 175.82726562 191.07673828 176.33128906 191.67041016 176.85058594 C215.14889946 197.9861075 231.40639099 218.19662001 233.27197266 250.53417969 C233.36944397 252.53654564 233.46236937 254.53914165 233.54931641 256.54199219 C233.58395996 257.31317383 233.61860352 258.08435547 233.65429688 258.87890625 C234.14945884 271.76541951 234.60601644 287.38127293 225.54931641 297.54199219 C217.36252499 305.09360151 209.10658222 306.80523705 198.26416016 306.70996094 C194.34272924 306.46734003 190.45033958 306.00302702 186.54931641 305.54199219 C186.4490918 306.3314624 186.34886719 307.12093262 186.24560547 307.93432617 C181.07381341 348.20921704 181.07381341 348.20921704 172.84228516 362.68652344 C171.37005768 365.33651545 171.37005768 365.33651545 171.69384766 367.61621094 C172.73948887 369.97009733 173.85288223 372.26042004 175.04931641 374.54199219 C178.40295499 380.93730298 179.17811471 386.3393934 178.54931641 393.54199219 C175.92620008 400.7210474 171.12045298 405.15604301 165.23681641 409.72949219 C160.3047632 413.6500117 156.99120593 417.79907855 153.43994141 422.95996094 C148.05882409 430.3089662 141.03819455 434.87310982 132.24072266 437.13574219 C128.87223987 437.64419242 125.58031764 437.61940335 122.17431641 437.66699219 C114.39365691 437.9557645 108.7241141 440.37861916 101.88134766 443.88574219 C92.94965879 448.32540934 82.840907 448.93095402 73.23681641 446.29199219 C69.14273175 444.91423802 65.89828716 443.27404728 62.54931641 440.54199219 C62.54931641 439.88199219 62.54931641 439.22199219 62.54931641 438.54199219 C54.24873832 437.14820272 46.81136318 438.15536447 38.54931641 439.41699219 C23.14805395 441.64073747 7.84683286 442.09159498 -7.69873047 442.21337891 C-8.57600296 442.22306702 -9.45327545 442.23275513 -10.35713196 442.24273682 C-12.00402639 442.25945846 -13.65104183 442.26746499 -15.29801941 442.26507568 C-22.26763454 442.33219131 -25.93963574 443.86497653 -31.07568359 448.41699219 C-39.32057265 455.05636112 -46.65549317 456.86630614 -57.07568359 456.97949219 C-58.25698853 456.99496094 -58.25698853 456.99496094 -59.4621582 457.01074219 C-63.53679489 456.94952699 -66.83639108 456.51712388 -70.64208984 455.03808594 C-77.9212474 452.37144031 -85.8808239 453.14281558 -93.52685547 453.19042969 C-104.20838415 453.05600038 -113.88745634 450.9521143 -121.70068359 443.16699219 C-122.50763672 442.3896875 -123.31458984 441.61238281 -124.14599609 440.81152344 C-124.90654297 440.06257813 -125.66708984 439.31363281 -126.45068359 438.54199219 C-127.81501998 437.30099987 -129.18937171 436.07088647 -130.57568359 434.85449219 C-131.52507812 434.01917969 -131.52507812 434.01917969 -132.49365234 433.16699219 C-135.17321615 430.94204499 -138.00391608 428.95496347 -140.88427734 426.99902344 C-142.75485086 425.25906353 -143.07227813 424.03094077 -143.45068359 421.54199219 C-144.11068359 421.54199219 -144.77068359 421.54199219 -145.45068359 421.54199219 C-149.62851256 415.86014479 -150.00158335 409.41571863 -149.45068359 402.54199219 C-149.12481108 400.99409773 -148.77001111 399.45204199 -148.38818359 397.91699219 C-147.17799407 392.97396455 -147.85072993 389.34185317 -149.45068359 384.54199219 C-150.11068359 384.54199219 -150.77068359 384.54199219 -151.45068359 384.54199219 C-152.84150752 382.56714263 -154.09534149 380.61390659 -155.32568359 378.54199219 C-156.00373047 377.42824219 -156.68177734 376.31449219 -157.38037109 375.16699219 C-158.07622153 373.96195883 -158.76622286 372.75353117 -159.45068359 371.54199219 C-159.79881104 370.93540771 -160.14693848 370.32882324 -160.50561523 369.70385742 C-163.46405869 364.22735216 -164.83267648 358.6618773 -166.13818359 352.60449219 C-166.55575485 350.71971008 -166.97616932 348.83555484 -167.39990234 346.95214844 C-167.5786792 346.12851807 -167.75745605 345.3048877 -167.94165039 344.45629883 C-168.27781135 342.54764854 -168.27781135 342.54764854 -169.45068359 341.54199219 C-170.97667231 341.35068202 -172.51016918 341.21848315 -174.04443359 341.11230469 C-175.46755859 341.00208984 -175.46755859 341.00208984 -176.91943359 340.88964844 C-178.90862142 340.74353541 -180.89820785 340.6027319 -182.88818359 340.46777344 C-190.60569638 339.85576638 -198.31570493 339.20832186 -203.82568359 333.29199219 C-208.66999 326.93132394 -210.48837465 320.13838549 -210.69677734 312.20996094 C-210.74427124 310.6595813 -210.74427124 310.6595813 -210.79272461 309.07788086 C-210.82422607 307.9729126 -210.85572754 306.86794434 -210.88818359 305.72949219 C-211.17532344 296.86164641 -211.68852616 288.0630371 -212.51318359 279.22949219 C-214.64163487 255.39474331 -214.65869364 234.63002365 -202.45068359 213.54199219 C-202.08152832 212.89552734 -201.71237305 212.2490625 -201.33203125 211.58300781 C-196.94591603 203.96268642 -196.94591603 203.96268642 -194.45068359 200.54199219 C-193.79068359 200.54199219 -193.13068359 200.54199219 -192.45068359 200.54199219 C-192.22251953 199.82914063 -191.99435547 199.11628906 -191.75927734 198.38183594 C-190.17881616 194.95199929 -188.13299049 192.81662708 -185.51318359 190.10449219 C-178.12005521 182.45004557 -176.9944498 176.4719383 -176.13818359 166.16699219 C-173.21579028 136.34529682 -163.89128932 105.8133193 -147.45068359 80.54199219 C-146.76490234 79.46304688 -146.07912109 78.38410156 -145.37255859 77.27246094 C-141.23846645 70.88543728 -141.23846645 70.88543728 -139.45068359 68.54199219 C-138.79068359 68.54199219 -138.13068359 68.54199219 -137.45068359 68.54199219 C-137.38880859 68.00574219 -137.32693359 67.46949219 -137.26318359 66.91699219 C-135.42848324 61.55402192 -130.42472368 57.41668127 -126.45068359 53.54199219 C-125.70818359 52.75824219 -124.96568359 51.97449219 -124.20068359 51.16699219 C-121.17688 48.28063421 -117.97461644 45.79478755 -114.63427734 43.28808594 C-112.42715737 41.59040697 -112.42715737 41.59040697 -110.54052734 39.62402344 C-102.59983124 31.71301218 -93.06566738 25.78876247 -83.25097656 20.51855469 C-81.42889373 19.53017236 -79.62897196 18.50853953 -77.82958984 17.47949219 C-53.73940624 3.87905706 -27.43718064 -0.34130563 0 0 Z " fill="#010101" transform="translate(253.45068359375,20.4580078125)"/>
<path d="M0 0 C1.17438629 -0.00191345 2.34877258 -0.0038269 3.55874634 -0.00579834 C6.02777319 -0.00715131 8.49680738 -0.00351739 10.96582031 0.00488281 C14.70914999 0.01557526 18.45199771 0.00496667 22.1953125 -0.0078125 C24.60937604 -0.00649037 27.02343929 -0.00392688 29.4375 0 C30.53895355 -0.00404846 31.6404071 -0.00809692 32.77523804 -0.01226807 C40.45391975 0.03320101 47.7960833 0.91193538 55.3515625 2.265625 C55.3515625 2.595625 55.3515625 2.925625 55.3515625 3.265625 C53.30997155 3.2928866 51.26827287 3.31213845 49.2265625 3.328125 C48.08960938 3.33972656 46.95265625 3.35132813 45.78125 3.36328125 C42.3515625 3.265625 42.3515625 3.265625 39.70141602 2.77001953 C35.55050569 2.14500818 31.51553251 2.10335262 27.32421875 2.09765625 C26.4582457 2.09432785 25.59227264 2.09099945 24.70005798 2.08757019 C22.86864754 2.0825213 21.03722795 2.08016123 19.20581055 2.08032227 C16.45410198 2.07815651 13.70280854 2.06003672 10.95117188 2.04101562 C1.61570924 2.01211832 -7.39934344 2.35191032 -16.62548828 3.82250977 C-20.36226443 4.37026043 -23.88191728 4.41936052 -27.6484375 4.265625 C-19.29595027 -0.33420807 -9.28368225 -0.0339978 0 0 Z " fill="#6E6E6E" transform="translate(241.6484375,20.734375)"/>
<path d="M0 0 C1.89298828 0.22429687 1.89298828 0.22429687 3.82421875 0.453125 C7.324839 0.84520544 10.81669785 1.13690982 14.33203125 1.359375 C15.68264648 1.45605469 15.68264648 1.45605469 17.06054688 1.5546875 C18.91358957 1.68620224 20.76792859 1.80046044 22.62304688 1.8984375 C29.34108965 2.42154393 29.34108965 2.42154393 32.52734375 5.21875 C36.47189504 12.66840655 37.41581797 20.68364054 37 29 C34.66108347 26.66108347 34.45683478 25.43001144 33.74609375 22.24609375 C33.42415039 20.84133789 33.42415039 20.84133789 33.09570312 19.40820312 C32.76989258 17.93770508 32.76989258 17.93770508 32.4375 16.4375 C32.00184044 14.49798936 31.56319922 12.55914523 31.12109375 10.62109375 C30.9295874 9.7592749 30.73808105 8.89745605 30.54077148 8.00952148 C30.18400004 6.01764458 30.18400004 6.01764458 29 5 C27.45089573 4.7966824 25.89389396 4.65277318 24.3359375 4.53515625 C22.89927734 4.41817383 22.89927734 4.41817383 21.43359375 4.29882812 C19.41812861 4.14309934 17.40250517 3.98940398 15.38671875 3.83789062 C9.99800839 3.39542642 5.13264683 2.71807086 0 1 C0 0.67 0 0.34 0 0 Z " fill="#5E5E5E" transform="translate(55,357)"/>
<path d="M0 0 C0.66 0.33 1.32 0.66 2 1 C1.0479279 2.00596297 0.08812654 3.00461563 -0.875 4 C-1.40867188 4.556875 -1.94234375 5.11375 -2.4921875 5.6875 C-4 7 -4 7 -6 7 C-6.433125 7.9590625 -6.433125 7.9590625 -6.875 8.9375 C-8 11 -8 11 -10 12 C-10.2578125 12.72574219 -10.515625 13.45148438 -10.78125 14.19921875 C-12.34163024 17.78509258 -14.73564775 20.13743561 -17.5 22.8125 C-18.24830078 23.56563477 -18.24830078 23.56563477 -19.01171875 24.33398438 C-22.73259991 28 -22.73259991 28 -25 28 C-25 27.34 -25 26.68 -25 26 C-24.34 26 -23.68 26 -23 26 C-22.9071875 25.195625 -22.9071875 25.195625 -22.8125 24.375 C-20.97779965 19.01202973 -15.97404008 14.87468908 -12 11 C-11.21625 10.195625 -10.4325 9.39125 -9.625 8.5625 C-6.54059275 5.55153101 -3.30132927 2.7685499 0 0 Z " fill="#575757" transform="translate(139,63)"/>
<path d="M0 0 C-11.85581758 4.6217594 -21.861239 5.42366995 -34 1 C-30.55707448 -0.01928716 -27.96263659 0.22972359 -24.41015625 0.734375 C-16.94024932 1.55763865 -6.39468541 -2.1315618 0 0 Z " fill="#767676" transform="translate(356,464)"/>
<path d="M0 0 C1.98 0.99 1.98 0.99 4 2 C4.02688151 3.64574566 4.04634123 5.29161413 4.0625 6.9375 C4.07410156 7.85402344 4.08570312 8.77054687 4.09765625 9.71484375 C4 12 4 12 3 13 C2.89955659 15.44904669 2.86125584 17.86374897 2.875 20.3125 C2.87113281 20.98990234 2.86726563 21.66730469 2.86328125 22.36523438 C2.72455674 28.83480093 2.72455674 28.83480093 6 34 C6 34.66 6 35.32 6 36 C5.34 36 4.68 36 4 36 C-0.17782897 30.31815261 -0.55089975 23.87372645 0 17 C0.32587252 15.45210555 0.68067249 13.9100498 1.0625 12.375 C2.16583682 7.87618295 2.11122889 4.22245778 0 0 Z " fill="#616161" transform="translate(104,406)"/>
<path d="M0 0 C2.125 0.375 2.125 0.375 4 1 C3.01 1 2.02 1 1 1 C-0.32 10.57 -1.64 20.14 -3 30 C-3.33 30 -3.66 30 -4 30 C-4.41791045 8.68656716 -4.41791045 8.68656716 -2 2 C-1.34 1.34 -0.68 0.68 0 0 Z " fill="#4B4B4B" transform="translate(439,325)"/>
<path d="M0 0 C1.30660357 4.29727397 0.6596762 7.60215865 0 12 C-0.99 12.33 -1.98 12.66 -3 13 C-3.12117188 13.76183594 -3.24234375 14.52367187 -3.3671875 15.30859375 C-5.4281621 28.00736799 -5.4281621 28.00736799 -7 34 C-7.99 34.495 -7.99 34.495 -9 35 C-8.34452006 22.98286779 -3.90384582 11.30060631 0 0 Z " fill="#737373" transform="translate(90,133)"/>
<path d="M0 0 C-4.54159042 2.12585084 -8.75798123 3.46855762 -13.6640625 4.46484375 C-16.85330548 5.19548972 -19.89218643 6.26504451 -22.98046875 7.3359375 C-25.2926699 8.09623575 -27.59779037 8.61254683 -30 9 C-27.88848894 6.65532847 -26.17224779 5.46520832 -23.19921875 4.4296875 C-22.46896484 4.17316406 -21.73871094 3.91664062 -20.98632812 3.65234375 C-20.22771484 3.39582031 -19.46910156 3.13929687 -18.6875 2.875 C-17.56698242 2.47861328 -17.56698242 2.47861328 -16.42382812 2.07421875 C-5.21199225 -1.80415116 -5.21199225 -1.80415116 0 0 Z " fill="#666666" transform="translate(214,26)"/>
<path d="M0 0 C0.33 0 0.66 0 1 0 C1.75265623 17.41562893 1.75265623 17.41562893 -3 23 C-5.57115223 25.46320309 -8.21796226 27.77842132 -11 30 C-11 26.26162601 -10.12513156 25.72080315 -7.625 23.0625 C-2.89826026 18.0148088 -1.66404886 14.09273518 -0.875 7.25 C-0.78863281 6.55261719 -0.70226562 5.85523438 -0.61328125 5.13671875 C-0.40228154 3.42527668 -0.20024499 1.71273371 0 0 Z " fill="#646464" transform="translate(78,184)"/>
<path d="M0 0 C-1.89192475 0.98669759 -3.78871978 1.9640602 -5.6875 2.9375 C-6.74324219 3.48277344 -7.79898437 4.02804687 -8.88671875 4.58984375 C-14.57098727 7.16452497 -20.16407741 7.26648281 -26.3125 7.5625 C-27.14845703 7.60568359 -27.98441406 7.64886719 -28.84570312 7.69335938 C-30.89696935 7.79885307 -32.9484648 7.89987315 -35 8 C-34.67 7.34 -34.34 6.68 -34 6 C-24.1 5.505 -24.1 5.505 -14 5 C-14 4.34 -14 3.68 -14 3 C-12.35 3 -10.7 3 -9 3 C-9 2.34 -9 1.68 -9 1 C-2.25 -1.125 -2.25 -1.125 0 0 Z " fill="#626262" transform="translate(400,451)"/>
<path d="M0 0 C0.97918775 3.07556958 1.1498998 3.68592423 -0.3125 6.75 C-0.869375 7.4925 -1.42625 8.235 -2 9 C-2.66 9 -3.32 9 -4 9 C-4.103125 9.763125 -4.20625 10.52625 -4.3125 11.3125 C-5.05790616 14.22636046 -5.84458939 15.02950397 -8 17 C-6.19389405 10.65660349 -3.74372266 5.43061745 0 0 Z " fill="#515151" transform="translate(54,229)"/>
<path d="M0 0 C0.66 0.33 1.32 0.66 2 1 C-0.1293893 4.19408396 -1.76812741 5.09402386 -5 7 C-5.33 7.66 -5.66 8.32 -6 9 C-7.32 9 -8.64 9 -10 9 C-10.33 9.99 -10.66 10.98 -11 12 C-11.66 11.67 -12.32 11.34 -13 11 C-10.24881027 8.14784917 -7.39684775 5.65641299 -4.25 3.25 C-3.45078125 2.63640625 -2.6515625 2.0228125 -1.828125 1.390625 C-1.22484375 0.93171875 -0.6215625 0.4728125 0 0 Z " fill="#5D5D5D" transform="translate(154,51)"/>
<path d="M0 0 C0.33 0 0.66 0 1 0 C2.32 5.94 3.64 11.88 5 18 C4.01 17.67 3.02 17.34 2 17 C-0.20018889 11.6230678 -0.20783455 5.71545019 0 0 Z " fill="#686868" transform="translate(427,166)"/>
<path d="M0 0 C3.80167749 5.70251624 4.28602017 12.27852593 4 19 C0.53482601 12.8121893 -0.24372825 6.94625504 0 0 Z " fill="#626262" transform="translate(423,147)"/>
<path d="M0 0 C3.85025879 0.60355408 6.86101159 1.76772603 10.3125 3.5625 C11.19550781 4.01753906 12.07851563 4.47257812 12.98828125 4.94140625 C13.65214844 5.29074219 14.31601562 5.64007813 15 6 C15 6.33 15 6.66 15 7 C12.625 7.125 12.625 7.125 10 7 C9.34 6.34 8.68 5.68 8 5 C6.03511169 4.11221308 6.03511169 4.11221308 3.875 3.375 C3.15054687 3.11460938 2.42609375 2.85421875 1.6796875 2.5859375 C1.12539063 2.39257812 0.57109375 2.19921875 0 2 C0 1.34 0 0.68 0 0 Z " fill="#606060" transform="translate(326,32)"/>
<path d="M0 0 C1.25348607 2.95106435 1.01044806 3.97406463 -0.21484375 7.015625 C-1.06755859 8.61664063 -1.06755859 8.61664063 -1.9375 10.25 C-2.50339844 11.32765625 -3.06929688 12.4053125 -3.65234375 13.515625 C-4.09707031 14.33546875 -4.54179688 15.1553125 -5 16 C-5.66 16 -6.32 16 -7 16 C-5.35433477 10.31497465 -2.70967216 5.23318364 0 0 Z " fill="#5E5E5E" transform="translate(102,108)"/>
<path d="M0 0 C0 0.66 0 1.32 0 2 C-2.046875 3.54296875 -2.046875 3.54296875 -4.75 5.1875 C-5.63171875 5.73792969 -6.5134375 6.28835937 -7.421875 6.85546875 C-10 8 -10 8 -12.328125 7.67578125 C-12.87984375 7.45277344 -13.4315625 7.22976562 -14 7 C-12.37554381 6.01993141 -10.75041739 5.04097364 -9.125 4.0625 C-8.22007812 3.51722656 -7.31515625 2.97195312 -6.3828125 2.41015625 C-2.31024931 0 -2.31024931 0 0 0 Z " fill="#646464" transform="translate(174,40)"/>
<path d="M0 0 C0.75 1.5625 0.75 1.5625 1 4 C-0.13084437 6.50286409 -1.52139516 8.67007722 -3 11 C-3.99 11 -4.98 11 -6 11 C-4.74194623 6.49197399 -3.09592835 3.5087188 0 0 Z " fill="#4E4E4E" transform="translate(109,97)"/>
<path d="M0 0 C2.125 0.375 2.125 0.375 4 1 C3.01 1 2.02 1 1 1 C0.34 5.95 -0.32 10.9 -1 16 C-1.33 16 -1.66 16 -2 16 C-2.05384521 13.70858714 -2.09272087 11.41681812 -2.125 9.125 C-2.14820313 7.84882813 -2.17140625 6.57265625 -2.1953125 5.2578125 C-2 2 -2 2 0 0 Z " fill="#5C5C5C" transform="translate(439,325)"/>
<path d="M0 0 C1.98 0.99 1.98 0.99 4 2 C4.08121924 3.60332791 4.13929134 5.20784026 4.1875 6.8125 C4.22230469 7.70582031 4.25710937 8.59914063 4.29296875 9.51953125 C3.95081002 12.41647515 3.24606427 13.22555028 1 15 C1.09539062 14.25234375 1.19078125 13.5046875 1.2890625 12.734375 C1.39992188 11.74953125 1.51078125 10.7646875 1.625 9.75 C1.74101563 8.77546875 1.85703125 7.8009375 1.9765625 6.796875 C2.00112537 3.86570607 1.5312717 2.45471036 0 0 Z " fill="#585858" transform="translate(104,406)"/>
<path d="M0 0 C3.39417765 3.12621626 5.6062718 5.56541027 7 10 C6.01 9.34 5.02 8.68 4 8 C4 7.34 4 6.68 4 6 C2.68 5.34 1.36 4.68 0 4 C0 2.68 0 1.36 0 0 Z " fill="#707070" transform="translate(392,80)"/>
<path d="M0 0 C0.66 0.33 1.32 0.66 2 1 C-0.31 3.97 -2.62 6.94 -5 10 C-5.33 9.34 -5.66 8.68 -6 8 C-4.768606 4.30581799 -2.79208646 2.64890254 0 0 Z " fill="#5E5E5E" transform="translate(412,433)"/>
<path d="M0 0 C0.99 0 1.98 0 3 0 C3.268125 0.7425 3.53625 1.485 3.8125 2.25 C4.94229421 4.86636554 6.20893202 6.80187111 8 9 C4.20620942 7.50958227 2.31656242 5.30937488 0 2 C0 1.34 0 0.68 0 0 Z " fill="#6F6F6F" transform="translate(47,348)"/>
<path d="M0 0 C2.53910197 0.38520564 3.72751123 0.70097943 5.484375 2.62890625 C5.90203125 3.26699219 6.3196875 3.90507812 6.75 4.5625 C7.17796875 5.20316406 7.6059375 5.84382813 8.046875 6.50390625 C8.36140625 6.99761719 8.6759375 7.49132812 9 8 C5.18284914 6.44486447 2.77292558 4.00400272 0 1 C0 0.67 0 0.34 0 0 Z " fill="#686868" transform="translate(110,443)"/>
<path d="M0 0 C2.83374881 3.20336822 3.5205537 5.78087253 4 10 C1 8 1 8 0.48828125 6.0546875 C0.32552083 4.03645833 0.16276042 2.01822917 0 0 Z " fill="#686868" transform="translate(412,113)"/>
<path d="M0 0 C2.79872437 2.52788007 4.45773019 4.20411134 5 8 C4.34 8 3.68 8 3 8 C0.25624329 5.04518508 0 4.22528092 0 0 Z " fill="#535353" transform="translate(402,95)"/>
<path d="M0 0 C0.66 0.33 1.32 0.66 2 1 C-0.75 3.0625 -0.75 3.0625 -4 5 C-6.203125 4.62109375 -6.203125 4.62109375 -8 4 C-6.71349294 3.30289269 -5.42059335 2.61757124 -4.125 1.9375 C-3.40570313 1.55464844 -2.68640625 1.17179687 -1.9453125 0.77734375 C-1.30335938 0.52082031 -0.66140625 0.26429687 0 0 Z " fill="#6A6A6A" transform="translate(182,35)"/>
</svg>
