<?xml version="1.0" encoding="UTF-8"?>
<svg version="1.1" xmlns="http://www.w3.org/2000/svg" width="466" height="419">
<path d="M0 0 C31.25925018 27.59221368 43.72917853 63.26316061 50.6328125 103.5546875 C50.75954346 104.2861499 50.88627441 105.0176123 51.0168457 105.77124023 C51.32672335 107.61419675 51.61190183 109.4612623 51.89453125 111.30859375 C53.4125684 116.9409372 56.9401881 120.79471106 60.91796875 124.91015625 C69.02854848 133.81037988 75.41080161 143.75180143 78.73046875 155.41015625 C79.00310547 156.33634766 79.00310547 156.33634766 79.28125 157.28125 C81.61335021 168.33337709 80.55961866 179.49038307 79.3359375 190.58984375 C78.87088845 194.84108709 78.51744103 199.08929239 78.21875 203.35546875 C78.09560425 205.11334717 78.09560425 205.11334717 77.9699707 206.90673828 C77.81308821 209.20160457 77.66167757 211.49685301 77.51635742 213.79248047 C77.40578003 215.36666748 77.40578003 215.36666748 77.29296875 216.97265625 C77.23238281 217.90207031 77.17179687 218.83148438 77.109375 219.7890625 C76.70124017 222.61234574 75.98527345 224.85107426 74.73046875 227.41015625 C72.25087183 228.64995471 70.45160356 228.60026148 67.6796875 228.69140625 C66.67099609 228.72878906 65.66230469 228.76617187 64.62304688 228.8046875 C63.56537109 228.83949219 62.50769531 228.87429688 61.41796875 228.91015625 C59.33841434 228.9793466 57.25897605 229.05214066 55.1796875 229.12890625 C54.25502686 229.15919922 53.33036621 229.18949219 52.37768555 229.22070312 C49.75500269 229.40840043 47.29413834 229.83742464 44.73046875 230.41015625 C44.488125 231.6425 44.24578125 232.87484375 43.99609375 234.14453125 C40.83377175 249.90987113 37.40776705 263.57980646 26.79296875 276.09765625 C24.26029309 279.26071153 23.73812954 279.95050907 23.66796875 284.16015625 C24.64824876 287.31600279 24.64824876 287.31600279 25.79296875 289.91015625 C27.07347239 293.32483263 27.18285044 295.79110271 26.73046875 299.41015625 C24.16317724 302.94018208 21.94732586 304.44333858 17.85546875 305.59765625 C13.85151589 306.88731897 12.47394192 308.84415021 10.23046875 312.34765625 C7.07714828 317.21257635 4.4517924 320.0100436 -1.26953125 321.41015625 C-6.04299865 321.90370921 -10.65106483 321.6428108 -15.39453125 320.9609375 C-21.0326149 319.92786987 -21.0326149 319.92786987 -26.1953125 321.6796875 C-27.28136098 322.78647199 -28.36216539 323.89842821 -29.4375 325.015625 C-32.58205187 327.40923911 -35.66598931 327.21779639 -39.49609375 326.9921875 C-44.84183596 325.87033456 -49.19694891 322.90485408 -52.68035889 318.71199036 C-55.77030675 315.13964839 -58.01107563 312.98619592 -62.83007812 312.57128906 C-64.54941231 312.55065379 -66.2694576 312.56657881 -67.98828125 312.61328125 C-68.91576172 312.60914719 -69.84324219 312.60501312 -70.79882812 312.60075378 C-72.77206212 312.59454003 -74.74539193 312.60330882 -76.71850586 312.62594604 C-81.81923496 312.68313894 -86.91885162 312.63152147 -92.01953125 312.5859375 C-93.01094116 312.57953751 -94.00235107 312.57313751 -95.02380371 312.56654358 C-102.37907777 312.493375 -109.49274283 311.97752887 -116.76953125 310.84765625 C-117.64681885 310.71609131 -118.52410645 310.58452637 -119.42797852 310.44897461 C-121.00463001 310.20980473 -122.5809254 309.96826712 -124.15673828 309.72363281 C-133.36824242 308.11020125 -133.36824242 308.11020125 -141.75390625 311.16796875 C-143.7610718 313.15378148 -145.50111213 315.21471729 -147.26953125 317.41015625 C-152.08876233 319.81977179 -159.07723397 318.29429356 -164.26953125 317.41015625 C-166.5234375 316.109375 -166.5234375 316.109375 -168.39453125 314.53515625 C-173.71834873 310.23712248 -180.14795267 310.11595953 -186.73291016 309.43603516 C-193.32488456 308.72687115 -198.08752702 307.69859971 -202.83203125 302.72265625 C-204.64428832 300.42029193 -206.0389361 298.03117758 -207.45703125 295.47265625 C-210.12981112 290.9951054 -213.81760501 288.61774247 -218.16015625 285.85546875 C-220.26953125 284.41015625 -220.26953125 284.41015625 -221.26953125 282.41015625 C-221.41058211 277.46330124 -220.80888019 273.6614837 -217.64453125 269.78515625 C-217.17789063 269.29789062 -216.71125 268.810625 -216.23046875 268.30859375 C-214.63913091 265.16473119 -215.490797 262.76225321 -216.26953125 259.41015625 C-217.85041488 256.03355096 -219.64887787 252.83995256 -221.48046875 249.59375 C-226.61382387 238.89581588 -227.09508622 225.8930213 -228.39453125 214.22265625 C-228.64686298 211.99340429 -228.90118978 209.7644203 -229.15914917 207.53581238 C-229.38918435 205.54365116 -229.61299437 203.55077399 -229.83642578 201.55786133 C-230.17391114 198.39041429 -230.17391114 198.39041429 -231.26953125 195.41015625 C-235.71123426 194.82572164 -238.414188 195.82098034 -242.26953125 197.84765625 C-247.57079578 200.62488588 -251.36866626 202.19154945 -257.26953125 200.41015625 C-262.71260958 198.13699327 -265.94163165 194.00272214 -268.58203125 188.84765625 C-272.51014137 174.92072035 -269.94370914 159.88431999 -263.58203125 147.09765625 C-263.12860352 146.18487915 -263.12860352 146.18487915 -262.66601562 145.25366211 C-255.87119192 132.43133761 -245.96382918 122.83078503 -235.59204102 112.94506836 C-233.77949888 111.21138436 -231.98301491 109.46222567 -230.1875 107.7109375 C-229.63748825 107.19614334 -229.0874765 106.68134918 -228.52079773 106.1509552 C-222.66309132 100.40778991 -221.18221128 93.84801523 -219.62109375 85.9375 C-219.33475881 84.52796972 -219.04829625 83.11846536 -218.76171875 81.70898438 C-218.32892441 79.54039295 -217.89916925 77.37125156 -217.47265625 75.20141602 C-214.75357371 61.45336962 -211.32896066 48.19331803 -204.58203125 35.78515625 C-204.14761719 34.98086182 -203.71320313 34.17656738 -203.265625 33.34790039 C-197.07042053 22.1560218 -189.21330882 13.11994762 -180.26953125 4.03515625 C-179.53412109 3.28548584 -178.79871094 2.53581543 -178.04101562 1.76342773 C-170.56799914 -5.6426884 -162.28214151 -11.38190361 -152.95703125 -16.21484375 C-152.22411865 -16.59527832 -151.49120605 -16.97571289 -150.73608398 -17.36767578 C-103.96160271 -41.25707297 -40.24247361 -33.20483912 0 0 Z M-188.90625 23.4453125 C-202.85768121 41.14634302 -208.29677376 60.77324776 -212.83203125 82.47265625 C-216.30050165 98.75087938 -222.02786769 108.35441789 -233.26953125 120.41015625 C-248.96672566 137.37028101 -264.38300623 155.16644482 -263.5546875 179.8359375 C-262.93748543 185.40766575 -261.69217457 189.79526383 -257.95703125 194.03515625 C-254.48224498 195.81295388 -253.01369874 195.36699905 -249.26953125 194.41015625 C-242.62575612 190.52088059 -236.78562099 185.27978318 -231.14453125 180.07421875 C-228.42418151 177.65990835 -226.98579929 176.41015625 -223.26953125 176.41015625 C-222.35050951 182.38379755 -222.1625776 188.21961316 -222.08056641 194.2590332 C-221.88090183 206.61188128 -220.95587209 218.54076753 -218.89453125 230.72265625 C-218.68538086 231.96031738 -218.47623047 233.19797852 -218.26074219 234.47314453 C-216.46808624 244.42306924 -214.85160229 252.54829403 -207.89453125 260.09765625 C-206.9490536 261.16391608 -206.00374022 262.2303216 -205.05859375 263.296875 C-204.35524902 264.07188354 -204.35524902 264.07188354 -203.63769531 264.86254883 C-202.32250604 266.35023349 -201.08665953 267.9069292 -199.85546875 269.46484375 C-196.93098926 272.79574637 -193.85577394 275.27565289 -190.26953125 277.84765625 C-189.61235107 278.32283691 -188.9551709 278.79801758 -188.27807617 279.28759766 C-182.21594459 283.58881392 -175.97790185 287.1877577 -169.26953125 290.41015625 C-168.36589844 290.84714844 -167.46226562 291.28414063 -166.53125 291.734375 C-157.63011034 295.72540933 -148.21497779 298.20835089 -138.81494141 300.72558594 C-136.58982213 301.32401625 -134.37328024 301.94674699 -132.15625 302.57421875 C-99.38472893 311.44417955 -64.8102761 310.21474307 -32.26953125 301.41015625 C-31.60115234 301.23258789 -30.93277344 301.05501953 -30.24414062 300.87207031 C-20.25622674 298.1652009 -11.26176267 294.27137002 -2.1484375 289.3894043 C-0.85804029 288.71687529 0.44802891 288.07384297 1.765625 287.45629883 C8.92036844 284.09190631 14.17149977 278.91876523 19.73046875 273.41015625 C20.50132812 272.6521875 21.2721875 271.89421875 22.06640625 271.11328125 C34.74406132 257.8041721 37.64246332 239.99335987 39.73046875 222.41015625 C40.90609375 222.47203125 42.08171875 222.53390625 43.29296875 222.59765625 C49.25184047 222.52447712 52.90181419 221.17726955 57.16796875 217.0546875 C61.72643903 212.82550842 61.72643903 212.82550842 63.73046875 207.41015625 C64.72046875 207.08015625 65.71046875 206.75015625 66.73046875 206.41015625 C74.73978369 193.06129802 77.67686354 179.53257293 73.98046875 164.41015625 C69.26445496 146.47456631 61.17752904 134.15998066 48.6484375 120.57421875 C45.8442823 117.41026359 44.51020768 115.2667659 44.125 111.10546875 C44.03234863 110.22616699 43.93969727 109.34686523 43.84423828 108.44091797 C43.74481934 107.4820166 43.64540039 106.52311523 43.54296875 105.53515625 C42.41952752 95.95739598 40.61143089 86.65924551 38.35546875 77.28515625 C38.07550049 76.10195801 37.79553223 74.91875977 37.50708008 73.69970703 C34.64182244 62.1235147 30.52908639 51.24489957 24.91796875 40.72265625 C24.48274902 39.90522949 24.0475293 39.08780273 23.59912109 38.24560547 C20.22359157 32.04704063 16.49813117 26.63147416 11.73046875 21.41015625 C10.82698687 20.36686995 9.92472628 19.32252524 9.0234375 18.27734375 C-1.38740888 6.39683289 -13.18895742 -2.39740215 -27.26953125 -9.58984375 C-27.93549316 -9.93289551 -28.60145508 -10.27594727 -29.28759766 -10.62939453 C-48.1568861 -20.15858308 -66.24678542 -23.03857873 -87.20703125 -23.08984375 C-88.03842621 -23.0945166 -88.86982117 -23.09918945 -89.72640991 -23.10400391 C-128.71718395 -23.1886692 -163.77417089 -6.13754804 -188.90625 23.4453125 Z M68.73046875 211.41015625 C67.46960816 212.89732515 66.21082467 214.38667163 64.984375 215.90234375 C63.73046875 217.41015625 63.73046875 217.41015625 61.73046875 219.41015625 C64.8185657 221.17478308 65.96359011 221.41015625 69.73046875 221.41015625 C69.73046875 218.11015625 69.73046875 214.81015625 69.73046875 211.41015625 C69.40046875 211.41015625 69.07046875 211.41015625 68.73046875 211.41015625 Z M-211.26953125 278.41015625 C-211.59953125 279.40015625 -211.92953125 280.39015625 -212.26953125 281.41015625 C-210.64626255 282.08102745 -209.02085547 282.74672654 -207.39453125 283.41015625 C-206.48960937 283.78140625 -205.5846875 284.15265625 -204.65234375 284.53515625 C-202.37969267 285.52505851 -202.37969267 285.52505851 -200.26953125 285.41015625 C-200.04910156 286.60511719 -200.04910156 286.60511719 -199.82421875 287.82421875 C-199.59992188 288.88382812 -199.375625 289.9434375 -199.14453125 291.03515625 C-198.93570313 292.07929688 -198.726875 293.1234375 -198.51171875 294.19921875 C-196.89812412 298.37020864 -195.20209508 301.14486788 -191.26953125 303.41015625 C-186.46065343 304.29790627 -181.63427133 303.96299439 -176.76757812 303.8203125 C-171.58078097 303.81354564 -168.24288361 303.84901245 -164.23828125 307.3671875 C-163.72845703 307.90577393 -163.21863281 308.44436035 -162.69335938 308.99926758 C-161.19214761 310.6747089 -161.19214761 310.6747089 -158.20703125 311.59765625 C-153.8908524 311.32215547 -152.32530285 309.39317139 -149.26953125 306.41015625 C-152.02259254 303.3829772 -154.30328106 301.71167918 -158.12109375 300.26171875 C-159.05566406 299.895625 -159.99023438 299.52953125 -160.953125 299.15234375 C-161.92378906 298.78367187 -162.89445312 298.415 -163.89453125 298.03515625 C-170.6838524 295.44874819 -176.91602769 292.65412928 -183.06689453 288.76147461 C-185.16958787 287.47147155 -187.2845162 286.38737935 -189.51953125 285.34765625 C-193.7285058 283.30720003 -198.12179577 280.70562721 -200.26953125 276.41015625 C-204.76777046 274.73938169 -207.32612091 275.90071331 -211.26953125 278.41015625 Z M5.41796875 291.28515625 C-10.36182364 301.72018025 -28.83794818 307.03249725 -47.26953125 310.41015625 C-45.67042424 314.76609481 -44.39094773 317.0288934 -40.26953125 319.41015625 C-36.67482121 319.65854006 -36.67482121 319.65854006 -33.26953125 318.41015625 C-32.65078125 317.56453125 -32.03203125 316.71890625 -31.39453125 315.84765625 C-29.26953125 313.41015625 -29.26953125 313.41015625 -25.51953125 312.97265625 C-22.41737888 313.12750579 -19.41231273 313.53444017 -16.3359375 313.98046875 C-15.63629883 314.08029053 -14.93666016 314.1801123 -14.21582031 314.28295898 C-12.81756531 314.4891776 -11.42197817 314.71460283 -10.03027344 314.96118164 C-5.17440788 315.70361229 -2.34826263 315.14552007 1.73046875 312.41015625 C3.53325035 308.99774823 4.62023676 305.93125295 5.41796875 302.16015625 C6.93795891 298.97541496 7.50037868 298.79417294 10.66796875 297.59765625 C12.01614115 297.18186476 13.37022152 296.78456093 14.73046875 296.41015625 C15.72046875 296.08015625 16.71046875 295.75015625 17.73046875 295.41015625 C16.76270777 291.61467704 16.76270777 291.61467704 14.73046875 288.41015625 C10.55353155 287.9689806 8.72474331 288.80650313 5.41796875 291.28515625 Z " fill="#070506" transform="translate(337.26953125,60.58984375)"/>
<path d="M0 0 C3.96 0.33 7.92 0.66 12 1 C11.01 1.495 11.01 1.495 10 2 C10.33 3.32 10.66 4.64 11 6 C6.71 5.67 2.42 5.34 -2 5 C-1.01 4.67 -0.02 4.34 1 4 C0.67 2.68 0.34 1.36 0 0 Z " fill="#131011" transform="translate(213,365)"/>
<path d="M0 0 C0.33 0.66 0.66 1.32 1 2 C-0.98 4.31 -2.96 6.62 -5 9 C-5 4.61031544 -2.87194899 3.23094261 0 0 Z " fill="#110A0D" transform="translate(149,73)"/>
</svg>
